<?xml version="1.0" encoding="UTF-8" standalone="no"?>
<svg width="30px" height="30px" viewBox="0 0 30 30" version="1.1" xmlns="http://www.w3.org/2000/svg" xmlns:xlink="http://www.w3.org/1999/xlink" xmlns:sketch="http://www.bohemiancoding.com/sketch/ns">
    <!-- Generator: Sketch 3.4.4 (17249) - http://www.bohemiancoding.com/sketch -->
    <title>github10</title>
    <desc>Created with Sketch.</desc>
    <defs></defs>
    <g id="Page-1" stroke="none" stroke-width="1" fill="none" fill-rule="evenodd" sketch:type="MSPage">
        <g id="Artboard-1" sketch:type="MSArtboardGroup" transform="translate(-162.000000, -30.000000)" fill="#FFFFFF">
            <g id="github10" sketch:type="MSLayerGroup" transform="translate(162.000000, 30.000000)">
                <g id="Capa_1" sketch:type="MSShapeGroup">
                    <path d="M27.9589066,7.48790433 C26.6189522,5.19205011 24.8013895,3.37441913 22.5057403,2.03460137 C20.2097494,0.694715262 17.7032118,0.0249430524 14.9843508,0.0249430524 C12.2658314,0.0249430524 9.7584738,0.694920273 7.46296128,2.03460137 C5.16710706,3.3743508 3.34961276,5.19205011 2.00965831,7.48790433 C0.669908884,9.78369021 0,12.2907062 0,15.0088838 C0,18.2740319 0.95261959,21.2101367 2.85833713,23.8179499 C4.76384966,26.4259681 7.22548975,28.230615 10.2430524,29.2320957 C10.5943052,29.2972893 10.854328,29.2514351 11.0233941,29.0956948 C11.1925285,28.9397494 11.2769932,28.7444419 11.2769932,28.5105923 C11.2769932,28.4715718 11.2736446,28.1205239 11.2671526,27.4570387 C11.2604556,26.7935535 11.2573121,26.214738 11.2573121,25.7208656 L10.8085421,25.7984966 C10.5224146,25.8509112 10.1614579,25.8731207 9.72567198,25.8668337 C9.29009112,25.8607517 8.83790433,25.8151025 8.36972665,25.7302278 C7.90134396,25.6461048 7.46569476,25.4510023 7.06243736,25.1453303 C6.65938497,24.8396583 6.3732574,24.4395444 6.20412301,23.9456036 L6.0090205,23.4966287 C5.87897494,23.1977221 5.6742369,22.865672 5.39453303,22.5017084 C5.11482916,22.1374032 4.83198178,21.8904328 4.54585421,21.7603872 L4.40924829,21.6625968 C4.31822323,21.5976082 4.23375854,21.5192255 4.1556492,21.4282688 C4.0776082,21.3373121 4.01917995,21.246287 3.98015945,21.1551253 C3.94107062,21.0638952 3.97346241,20.9890661 4.07767654,20.9303645 C4.18189066,20.8716629 4.37022779,20.8431663 4.64350797,20.8431663 L5.03357631,20.9014579 C5.29373576,20.9535991 5.61553531,21.1093394 5.99938497,21.3696355 C6.38302961,21.6297267 6.69840547,21.9678588 6.94558087,22.3838952 C7.24489749,22.9173349 7.60551253,23.3238041 8.02845103,23.603508 C8.45104784,23.8832118 8.87712984,24.0228246 9.30628702,24.0228246 C9.73544419,24.0228246 10.1061048,23.9902961 10.4184055,23.9255809 C10.7303645,23.8605239 11.0230524,23.7627335 11.2963326,23.6327563 C11.4133941,22.7609112 11.7321185,22.091139 12.2522323,21.6229613 C11.5109112,21.5450569 10.8444191,21.4277221 10.2524146,21.2717084 C9.66075171,21.1154897 9.04933941,20.861959 8.4185877,20.5104328 C7.78749431,20.159385 7.26396355,19.7234624 6.84785877,19.2034169 C6.43168565,18.6830979 6.09013667,18 5.82369021,17.154738 C5.55710706,16.3091344 5.42378132,15.3336902 5.42378132,14.2281321 C5.42378132,12.6539863 5.93767654,11.3144419 6.96526196,10.2087472 C6.48389522,9.02528474 6.52933941,7.6985877 7.10173121,6.22879271 C7.47895216,6.11159453 8.03835991,6.19954442 8.77968109,6.49209567 C9.52113895,6.7847836 10.0640091,7.03551253 10.4088383,7.24339408 C10.7536674,7.45120729 11.0299544,7.62731207 11.2381093,7.77013667 C12.4480182,7.43207289 13.6966059,7.26300683 14.9842141,7.26300683 C16.2718223,7.26300683 17.5206834,7.43207289 18.7306606,7.77013667 L19.4720501,7.30209567 C19.9790433,6.98979499 20.5777449,6.70359909 21.2667198,6.44343964 C21.9561048,6.18341686 22.4832574,6.11179954 22.847631,6.22899772 C23.4327335,7.69886105 23.4848747,9.02548975 23.0033713,10.2089522 C24.0308884,11.3146469 24.5449886,12.654533 24.5449886,14.2283371 C24.5449886,15.3338952 24.4111845,16.3124146 24.1450114,17.1645103 C23.8784966,18.0167426 23.5340091,18.6991572 23.1114123,19.2131891 C22.6883371,19.7271526 22.1614579,20.1596583 21.5307062,20.5106378 C20.8998178,20.8618907 20.2882005,21.1154214 19.6965376,21.2716401 C19.1046014,21.4278588 18.4381093,21.545262 17.6967882,21.623303 C18.3729157,22.2084055 18.7110478,23.1319818 18.7110478,24.3936219 L18.7110478,28.5100456 C18.7110478,28.7438952 18.792369,28.9391344 18.9551481,29.0951481 C19.1177221,29.2508884 19.3744647,29.2967426 19.7257175,29.2314806 C22.7436902,28.2301367 25.2053303,26.4254214 27.1107745,23.8174032 C29.0160137,21.20959 29.9689749,18.2734852 29.9689749,15.0083371 C29.9682916,12.2905011 29.298041,9.78369021 27.9589066,7.48790433 L27.9589066,7.48790433 Z" id="Shape"></path>
                </g>
            </g>
        </g>
    </g>
</svg>