<?xml version="1.0" encoding="UTF-8" standalone="no"?>
<svg width="60px" height="60px" viewBox="0 0 60 60" version="1.1" xmlns="http://www.w3.org/2000/svg" xmlns:xlink="http://www.w3.org/1999/xlink" xmlns:sketch="http://www.bohemiancoding.com/sketch/ns">
    <!-- Generator: Sketch 3.4.4 (17249) - http://www.bohemiancoding.com/sketch -->
    <title>Group</title>
    <desc>Created with Sketch.</desc>
    <defs></defs>
    <g id="Page-1" stroke="none" stroke-width="1" fill="none" fill-rule="evenodd" sketch:type="MSPage">
        <g id="Artboard-1" sketch:type="MSArtboardGroup" transform="translate(-1181.000000, -517.000000)" stroke="#FFFFFF" stroke-width="2" stroke-linecap="round" stroke-linejoin="round">
            <g id="Group" sketch:type="MSLayerGroup" transform="translate(1182.000000, 518.000000)">
                <path d="M24,50 L58,50 L58,0 L8,0 L8,34" id="Stroke-258" sketch:type="MSShapeGroup"></path>
                <path d="M50.4301,7.57 L30.0001,28" id="Stroke-259" sketch:type="MSShapeGroup"></path>
                <path d="M43,28 L30,28 L30,15" id="Stroke-260" sketch:type="MSShapeGroup"></path>
                <path d="M0,41 L0,43" id="Stroke-261" sketch:type="MSShapeGroup"></path>
                <path d="M17,34 L15,34" id="Stroke-262" sketch:type="MSShapeGroup"></path>
                <path d="M0,51 L0,49" id="Stroke-263" sketch:type="MSShapeGroup"></path>
                <path d="M21,34 L24,34 L24,37" id="Stroke-264" sketch:type="MSShapeGroup"></path>
                <path d="M7,34 L9,34" id="Stroke-265" sketch:type="MSShapeGroup"></path>
                <path d="M17,58 L15,58" id="Stroke-266" sketch:type="MSShapeGroup"></path>
                <path d="M7,58 L9,58" id="Stroke-267" sketch:type="MSShapeGroup"></path>
                <path d="M3,34 L0,34 L0,37" id="Stroke-268" sketch:type="MSShapeGroup"></path>
                <path d="M21,58 L24,58 L24,55" id="Stroke-269" sketch:type="MSShapeGroup"></path>
                <path d="M3,58 L0,58 L0,55" id="Stroke-270" sketch:type="MSShapeGroup"></path>
                <path d="M24,41 L24,43" id="Stroke-271" sketch:type="MSShapeGroup"></path>
                <path d="M24,51 L24,49" id="Stroke-272" sketch:type="MSShapeGroup"></path>
            </g>
        </g>
    </g>
</svg>