<?xml version="1.0" encoding="UTF-8" standalone="no"?>
<svg width="60px" height="50px" viewBox="0 0 60 50" version="1.1" xmlns="http://www.w3.org/2000/svg" xmlns:xlink="http://www.w3.org/1999/xlink" xmlns:sketch="http://www.bohemiancoding.com/sketch/ns">
    <!-- Generator: Sketch 3.4.4 (17249) - http://www.bohemiancoding.com/sketch -->
    <title>Page 1</title>
    <desc>Created with Sketch.</desc>
    <defs></defs>
    <g id="Page-1" stroke="none" stroke-width="1" fill="none" fill-rule="evenodd" sketch:type="MSPage">
        <g id="Artboard-1" sketch:type="MSArtboardGroup" transform="translate(-444.000000, -27.000000)" stroke="#FFFFFF" stroke-width="2" stroke-linecap="round" stroke-linejoin="round">
            <g id="Page-1" sketch:type="MSLayerGroup" transform="translate(445.000000, 28.000000)">
                <path d="M58,48 L0,48 L0,0 L58,0 L58,48 Z" id="Stroke-1" sketch:type="MSShapeGroup"></path>
                <path d="M0,14 L58,14" id="Stroke-3" sketch:type="MSShapeGroup"></path>
                <path d="M34,7 C34,7.55 33.55,8 33,8 C32.45,8 32,7.55 32,7 C32,6.45 32.45,6 33,6 C33.55,6 34,6.45 34,7 L34,7 Z" id="Stroke-4" sketch:type="MSShapeGroup"></path>
                <path d="M42,7 C42,7.55 41.55,8 41,8 C40.45,8 40,7.55 40,7 C40,6.45 40.45,6 41,6 C41.55,6 42,6.45 42,7 L42,7 Z" id="Stroke-5" sketch:type="MSShapeGroup"></path>
                <path d="M50,7 C50,7.55 49.55,8 49,8 C48.45,8 48,7.55 48,7 C48,6.45 48.45,6 49,6 C49.55,6 50,6.45 50,7 L50,7 Z" id="Stroke-6" sketch:type="MSShapeGroup"></path>
                <path d="M14,34 L20,28 L14,22" id="Stroke-7" sketch:type="MSShapeGroup"></path>
                <path d="M28,28 L40,28" id="Stroke-8" sketch:type="MSShapeGroup"></path>
            </g>
        </g>
    </g>
</svg>