<?xml version="1.0" encoding="UTF-8" standalone="no"?>
<svg width="59px" height="59px" viewBox="0 0 59 59" version="1.1" xmlns="http://www.w3.org/2000/svg" xmlns:xlink="http://www.w3.org/1999/xlink" xmlns:sketch="http://www.bohemiancoding.com/sketch/ns">
    <!-- Generator: Sketch 3.4.4 (17249) - http://www.bohemiancoding.com/sketch -->
    <title>Group</title>
    <desc>Created with Sketch.</desc>
    <defs>
        <path id="path-1" d="M0,57 L57,0"></path>
        <path id="path-2" d="M57,0 C57,0 51.82,23.18 40,35 C28.18,46.82 18.37,47.49 13.98,43.1 C9.59,38.71 9.18,26.82 21,15 C23.52,12.48 26.22,10.8 30,9 L30,17 C30,17 35,12.04 35,7 C45.64,2.34 57,0 57,0 L57,0 Z"></path>
        <path id="path-3" d="M37.95,36.95 L32,31"></path>
        <path id="path-4" d="M41.45,33.45 L36,28"></path>
    </defs>
    <g id="Page-1" stroke="none" stroke-width="1" fill="none" fill-rule="evenodd" sketch:type="MSPage">
        <g id="Artboard-1" sketch:type="MSArtboardGroup" transform="translate(-267.000000, -23.000000)">
            <g id="Group" sketch:type="MSLayerGroup" transform="translate(268.000000, 24.000000)">
                <g id="Stroke-217">
                    <use stroke="#FFFFFF" stroke-width="2" stroke-linecap="round" stroke-linejoin="round" sketch:type="MSShapeGroup" xlink:href="#path-1"></use>
                    <use stroke="none" xlink:href="#path-1"></use>
                </g>
                <g id="Stroke-218">
                    <use stroke="#FFFFFF" stroke-width="2" stroke-linecap="round" stroke-linejoin="round" sketch:type="MSShapeGroup" xlink:href="#path-2"></use>
                    <use stroke="none" xlink:href="#path-2"></use>
                </g>
                <g id="Stroke-219">
                    <use stroke="#FFFFFF" stroke-width="2" stroke-linecap="round" stroke-linejoin="round" sketch:type="MSShapeGroup" xlink:href="#path-3"></use>
                    <use stroke="none" xlink:href="#path-3"></use>
                </g>
                <g id="Stroke-220">
                    <use stroke="#FFFFFF" stroke-width="2" stroke-linecap="round" stroke-linejoin="round" sketch:type="MSShapeGroup" xlink:href="#path-4"></use>
                    <use stroke="none" xlink:href="#path-4"></use>
                </g>
            </g>
        </g>
    </g>
</svg>