<?xml version="1.0" encoding="UTF-8" standalone="no"?>
<svg width="60px" height="52px" viewBox="0 0 60 52" version="1.1" xmlns="http://www.w3.org/2000/svg" xmlns:xlink="http://www.w3.org/1999/xlink" xmlns:sketch="http://www.bohemiancoding.com/sketch/ns">
    <!-- Generator: Sketch 3.4.4 (17249) - http://www.bohemiancoding.com/sketch -->
    <title>Page 1</title>
    <desc>Created with Sketch.</desc>
    <defs></defs>
    <g id="Page-1" stroke="none" stroke-width="1" fill="none" fill-rule="evenodd" sketch:type="MSPage">
        <g id="Artboard-1" sketch:type="MSArtboardGroup" transform="translate(-652.000000, -50.000000)" stroke="#FFFFFF" stroke-width="2" stroke-linecap="round" stroke-linejoin="round">
            <g id="Page-1" sketch:type="MSLayerGroup" transform="translate(653.000000, 51.000000)">
                <path d="M28,29 L0,16 L0,37 L28,50 L28,29 L28,29 Z" id="Stroke-1" sketch:type="MSShapeGroup"></path>
                <path d="M58,16 L28,29 L28,50 L58,37 L58,16 L58,16 Z" id="Stroke-3" sketch:type="MSShapeGroup"></path>
                <path d="M36.56,17.65 C36.56,19.74 33.18,21.44 29,21.44 C24.82,21.44 21.43,19.74 21.43,17.65 C21.43,15.56 24.82,13.87 29,13.87 C33.18,13.87 36.56,15.56 36.56,17.65 L36.56,17.65 Z" id="Stroke-5" sketch:type="MSShapeGroup"></path>
                <path d="M36.56,3.78 C36.56,5.87 33.18,7.56 29,7.56 C24.82,7.56 21.43,5.87 21.43,3.78 C21.43,1.69 24.82,0 29,0 C33.18,0 36.56,1.69 36.56,3.78 L36.56,3.78 Z" id="Stroke-7" sketch:type="MSShapeGroup"></path>
                <path d="M54.22,11.35 C54.22,13.44 50.83,15.13 46.65,15.13 C42.47,15.13 39.09,13.44 39.09,11.35 C39.09,9.26 42.47,7.56 46.65,7.56 C50.83,7.56 54.22,9.26 54.22,11.35 L54.22,11.35 Z" id="Stroke-9" sketch:type="MSShapeGroup"></path>
                <path d="M20.17,11.35 C20.17,13.44 16.79,15.13 12.61,15.13 C8.43,15.13 5.04,13.44 5.04,11.35 C5.04,9.26 8.43,7.56 12.61,7.56 C16.79,7.56 20.17,9.26 20.17,11.35 L20.17,11.35 Z" id="Stroke-11" sketch:type="MSShapeGroup"></path>
                <path d="M6.49,13.57 L0,16" id="Stroke-13" sketch:type="MSShapeGroup"></path>
                <path d="M23.29,6.27 L17.86,8.63" id="Stroke-15" sketch:type="MSShapeGroup"></path>
                <path d="M40.84,8.93 L34.7,6.26" id="Stroke-17" sketch:type="MSShapeGroup"></path>
                <path d="M58,16 L52.2,13.87" id="Stroke-19" sketch:type="MSShapeGroup"></path>
            </g>
        </g>
    </g>
</svg>