<?xml version="1.0" encoding="utf-8"?>
<!-- Generator: Adobe Illustrator 18.0.0, SVG Export Plug-In . SVG Version: 6.00 Build 0)  -->
<!DOCTYPE svg PUBLIC "-//W3C//DTD SVG 1.1//EN" "http://www.w3.org/Graphics/SVG/1.1/DTD/svg11.dtd">
<svg version="1.1" id="Layer_1" xmlns="http://www.w3.org/2000/svg" xmlns:xlink="http://www.w3.org/1999/xlink" x="0px" y="0px"
	 viewBox="0 0 35 35" enable-background="new 0 0 35 35" xml:space="preserve">
<g>
	<path fill-rule="evenodd" clip-rule="evenodd" fill="#4188B5" d="M5.5,1.2h24.3c2.3,0,4.2,1.9,4.2,4.2v24.3c0,2.3-1.9,4.2-4.2,4.2
		H5.5c-2.3,0-4.2-1.9-4.2-4.2V5.4C1.3,3.1,3.2,1.2,5.5,1.2z M25.1,4.8c-0.8,0-1.5,0.7-1.5,1.5v3.5c0,0.8,0.7,1.5,1.5,1.5h3.7
		c0.8,0,1.5-0.7,1.5-1.5V6.3c0-0.8-0.7-1.5-1.5-1.5H25.1z M30.3,15h-2.9c0.3,0.9,0.4,1.8,0.4,2.8c0,5.4-4.5,9.8-10.2,9.8
		c-5.6,0-10.2-4.4-10.2-9.8c0-1,0.1-1.9,0.4-2.8H5v13.8c0,0.7,0.6,1.3,1.3,1.3H29c0.7,0,1.3-0.6,1.3-1.3V15z M17.7,11.1
		c-3.6,0-6.6,2.8-6.6,6.4c0,3.5,2.9,6.4,6.6,6.4c3.6,0,6.6-2.8,6.6-6.4C24.3,14,21.3,11.1,17.7,11.1z"/>
</g>
</svg>
