<?xml version="1.0" encoding="utf-8"?>
<!-- Generator: Adobe Illustrator 18.0.0, SVG Export Plug-In . SVG Version: 6.00 Build 0)  -->
<!DOCTYPE svg PUBLIC "-//W3C//DTD SVG 1.1//EN" "http://www.w3.org/Graphics/SVG/1.1/DTD/svg11.dtd">
<svg version="1.1" id="Layer_1" xmlns="http://www.w3.org/2000/svg" xmlns:xlink="http://www.w3.org/1999/xlink" x="0px" y="0px"
	 viewBox="0 0 35 35" enable-background="new 0 0 35 35" xml:space="preserve">
<g>
	<path fill="#0B86B8" d="M1.5,12.2h6.8V34H1.5V12.2z M4.9,1.4c2.2,0,3.9,1.8,3.9,3.9c0,2.2-1.8,3.9-3.9,3.9C2.8,9.3,1,7.5,1,5.4
		C1,3.2,2.8,1.4,4.9,1.4"/>
	<path fill="#0B86B8" d="M12.5,12.2H19v3h0.1c0.9-1.7,3.1-3.5,6.4-3.5c6.8,0,8.1,4.5,8.1,10.4V34h-6.8V23.4c0-2.5,0-5.8-3.5-5.8
		c-3.5,0-4.1,2.7-4.1,5.6V34h-6.8V12.2z"/>
</g>
</svg>
